<?xml version="1.0" encoding="UTF-8"?>
<svg id="Layer_1" xmlns="http://www.w3.org/2000/svg" version="1.1" viewBox="0 0 200 200">
  <!-- Generator: Adobe Illustrator 30.1.0, SVG Export Plug-In . SVG Version: 2.1.1 Build 136)  -->
  <defs>
    <style>
      .st0 {
        fill: #fbeacb;
      }

      .st1 {
        fill: #dc4a4c;
      }

      .st2 {
        fill: #243e90;
      }

      .st3 {
        fill: #010101;
      }

      .st4 {
        fill: #fff;
      }

      .st5 {
        fill: #663614;
      }

      .st6 {
        fill: #d29242;
      }

      .st7 {
        fill: #f1605d;
      }

      .st8 {
        fill: none;
        stroke: #212121;
        stroke-linecap: round;
        stroke-miterlimit: 10;
        stroke-width: 1.42px;
      }

      .st9 {
        fill: #e1aa58;
      }

      .st10 {
        fill: #2265b1;
      }

      .st11 {
        fill: #989898;
      }
    </style>
  </defs>
  <g>
    <path class="st10" d="M199.89,99.75c0,11.25-1.86,22.07-5.29,32.17-13.39,39.45-50.74,67.83-94.71,67.83S18.57,171.36,5.18,131.92C1.75,121.82-.11,111-.11,99.75-.11,44.52,44.66-.25,99.89-.25s100,44.77,100,100Z"/>
    <path class="st2" d="M194.6,131.92c-13.39,39.45-50.74,67.83-94.71,67.83S18.57,171.36,5.18,131.92h189.43Z"/>
  </g>
  <g>
    <g>
      <path class="st6" d="M25.03,140v-52.15c0-4.97,1.92-9.65,5.41-13.18l-2.53-2.53c-1.86-1.86-2.88-4.32-2.88-6.95s1.02-5.09,2.88-6.95,4.32-2.88,6.95-2.88h64.98c2.62,0,5.09,1.02,6.95,2.88,1.86,1.86,2.88,4.32,2.88,6.95s-1.02,5.09-2.88,6.95l-2.53,2.53c3.49,3.53,5.41,8.21,5.41,13.18v52.15H25.03Z"/>
      <g>
        <g>
          <path class="st0" d="M36.78,138.2v-50.14c0-4.66,1.82-9.05,5.11-12.35.2-.2.23-.42.23-.54s-.03-.35-.23-.54l-2.55-2.55c-1.65-1.65-2.56-3.85-2.56-6.18s.91-4.53,2.56-6.18,3.85-2.56,6.18-2.56h63.57c2.34,0,4.53.91,6.18,2.56,1.65,1.65,2.56,3.85,2.56,6.18s-.91,4.53-2.56,6.18l-2.55,2.55c-.2.2-.23.42-.23.54s.03.35.23.54c3.3,3.3,5.11,7.68,5.11,12.35v50.14H36.78Z"/>
          <path class="st9" d="M109.09,58.95c1.92,0,3.65.78,4.91,2.03s2.03,2.99,2.03,4.91-.73,3.6-2.03,4.91l-2.55,2.55c-.5.5-.75,1.16-.75,1.81s.25,1.31.75,1.81c2.94,2.94,4.59,6.92,4.59,11.08v48.34H38.58v-48.34c0-4.16,1.65-8.14,4.59-11.08.5-.5.75-1.16.75-1.81s-.25-1.31-.75-1.81l-2.55-2.55c-1.3-1.3-2.03-3.07-2.03-4.91s.78-3.65,2.03-4.91c1.26-1.26,2.99-2.03,4.91-2.03h63.57M109.09,55.36h-63.57c-2.81,0-5.46,1.1-7.45,3.09-1.99,1.99-3.09,4.64-3.09,7.45s1.1,5.46,3.09,7.45l1.84,1.84c-3.19,3.54-4.93,8.07-4.93,12.87v51.94h84.65v-51.94c0-4.8-1.74-9.33-4.93-12.87l1.84-1.84c1.99-1.99,3.09-4.64,3.09-7.45s-1.1-5.46-3.09-7.45c-1.99-1.99-4.64-3.09-7.45-3.09h0Z"/>
        </g>
        <g>
          <g>
            <path class="st7" d="M104.25,87.47v3.13c0,2.52-.62,4.9-1.71,6.99-.79,1.51-1.83,2.87-3.06,4.02-2.7,2.53-6.34,4.09-10.33,4.09h-4.21c-4,0-7.63-1.55-10.33-4.09-1.23-1.15-2.27-2.51-3.06-4.02-1.1-2.09-1.72-4.47-1.72-6.99v-3.13c0-2.33,1.89-4.21,4.21-4.21h26.01c2.33,0,4.21,1.88,4.21,4.21h0Z"/>
            <path class="st1" d="M99.52,101.44c-.01.06-.02.12-.04.18-2.7,2.53-6.34,4.09-10.33,4.09h-4.21c-4,0-7.63-1.55-10.33-4.09-.01-.06-.02-.12-.04-.18,3.02-4.5,7.49-7.36,12.47-7.36s9.45,2.85,12.47,7.36h0Z"/>
          </g>
          <circle class="st3" cx="74.16" cy="73.14" r="4.33"/>
          <circle class="st3" cx="99.93" cy="73.14" r="4.33"/>
        </g>
        <path class="st9" d="M109.79,59.93c1.4,0,2.72.55,3.72,1.54s1.54,2.31,1.54,3.72-.55,2.72-1.54,3.72l-2.61,2.61c-.84.84-1.31,1.96-1.31,3.15s.46,2.31,1.31,3.15c2.68,2.68,4.15,6.24,4.15,10.03v47.58H39.56v-47.58c0-3.79,1.48-7.35,4.15-10.03.84-.84,1.31-1.96,1.31-3.15s-.46-2.31-1.31-3.15l-2.61-2.61c-.99-.99-1.54-2.31-1.54-3.72s.55-2.72,1.54-3.72c.99-.99,2.31-1.54,3.72-1.54h64.98M109.79,58.09H44.81c-1.96,0-3.73.79-5.02,2.08s-2.08,3.06-2.08,5.02.75,3.68,2.08,5.02l2.61,2.61c.51.51.77,1.18.77,1.85s-.26,1.34-.77,1.85c-3,3-4.69,7.07-4.69,11.32v49.42h79.17v-49.42c0-4.25-1.69-8.32-4.69-11.32-.51-.51-.77-1.18-.77-1.85s.26-1.34.77-1.85l2.61-2.61c1.33-1.33,2.08-3.14,2.08-5.02s-.79-3.73-2.08-5.02-3.06-2.08-5.02-2.08h0Z"/>
      </g>
    </g>
    <g>
      <polygon class="st5" points="155.2 144.7 107.5 144.7 127.05 62.19 174.75 62.19 155.2 144.7"/>
      <polygon class="st4" points="109.75 142.85 128.23 65.02 171.76 65.02 153.28 142.85 109.75 142.85"/>
      <rect class="st11" x="138.15" y="64.25" width="23.25" height="1.58" rx=".79" ry=".79"/>
      <line class="st8" x1="140.21" y1="68.96" x2="158.32" y2="68.96"/>
      <line class="st8" x1="130.49" y1="73.68" x2="165.88" y2="73.68"/>
      <line class="st8" x1="129.02" y1="78.77" x2="164.41" y2="78.77"/>
      <line class="st8" x1="127.94" y1="83.85" x2="163.33" y2="83.85"/>
      <line class="st8" x1="126.61" y1="88.93" x2="162" y2="88.93"/>
      <line class="st8" x1="125.29" y1="94.01" x2="160.68" y2="94.01"/>
      <line class="st8" x1="124.24" y1="99.09" x2="159.63" y2="99.09"/>
      <line class="st8" x1="123.16" y1="104.17" x2="158.55" y2="104.17"/>
      <line class="st8" x1="121.69" y1="109.26" x2="157.08" y2="109.26"/>
      <line class="st8" x1="120.37" y1="114.34" x2="155.76" y2="114.34"/>
      <line class="st8" x1="119.28" y1="119.42" x2="154.67" y2="119.42"/>
      <line class="st8" x1="118.45" y1="124.5" x2="153.84" y2="124.5"/>
      <line class="st8" x1="117.15" y1="129.59" x2="152.54" y2="129.59"/>
      <line class="st8" x1="116.07" y1="134.67" x2="151.46" y2="134.67"/>
      <line class="st8" x1="114.5" y1="139.75" x2="149.89" y2="139.75"/>
    </g>
  </g>
</svg>